<?xml version="1.0" standalone="no"?>
<!DOCTYPE svg PUBLIC "-//W3C//DTD SVG 20010904//EN"
 "http://www.w3.org/TR/2001/REC-SVG-20010904/DTD/svg10.dtd">
<svg version="1.0" xmlns="http://www.w3.org/2000/svg"
 width="512.000000pt" height="512.000000pt" viewBox="0 0 512.000000 512.000000"
 preserveAspectRatio="xMidYMid meet">

<g transform="translate(0.000000,512.000000) scale(0.100000,-0.100000)"
fill="#000000" stroke="none">
<path d="M2321 5109 c-486 -43 -989 -249 -1376 -564 -114 -92 -294 -274 -384
-387 -229 -287 -417 -675 -495 -1023 -49 -218 -60 -325 -60 -575 0 -250 11
-357 60 -575 79 -355 272 -749 509 -1040 92 -114 274 -294 387 -384 287 -229
675 -417 1023 -495 218 -49 325 -60 575 -60 250 0 357 11 575 60 261 58 603
204 828 353 389 259 688 599 893 1016 165 337 246 658 261 1033 23 598 -168
1183 -545 1672 -84 109 -323 348 -432 432 -528 407 -1164 595 -1819 537z
m1555 -922 c156 -52 264 -162 312 -316 16 -52 17 -149 17 -1311 0 -1162 -1
-1259 -17 -1311 -49 -156 -161 -268 -317 -317 -52 -16 -149 -17 -1311 -17
-1162 0 -1259 1 -1311 17 -156 49 -268 161 -317 317 -16 52 -17 149 -17 1311
0 1162 1 1259 17 1311 57 183 200 305 388 329 30 4 606 7 1280 6 1134 -1 1229
-3 1276 -19z"/>
<path d="M1271 4003 c-26 -9 -65 -36 -91 -62 -86 -86 -80 17 -80 -1381 0
-1398 -6 -1295 80 -1380 85 -86 -18 -80 1380 -80 1398 0 1295 -6 1380 80 86
85 80 -18 80 1380 0 1398 6 1295 -80 1380 -85 86 19 80 -1384 79 -1101 0
-1246 -2 -1285 -16z m2380 -179 c104 -31 189 -148 189 -259 0 -96 -66 -199
-156 -245 -67 -33 -169 -34 -234 -1 -102 52 -154 135 -154 246 0 86 28 149 93
206 73 65 162 83 262 53z m-831 -389 c303 -97 515 -309 616 -615 26 -79 28
-97 28 -255 1 -160 -1 -175 -27 -260 -97 -305 -317 -525 -622 -622 -85 -26
-100 -28 -260 -27 -158 0 -176 2 -255 28 -306 101 -515 310 -616 616 -26 80
-28 95 -28 260 0 165 2 180 28 260 99 299 311 516 599 610 104 34 151 39 307
36 124 -3 157 -8 230 -31z"/>
<path d="M3535 3651 c-60 -25 -77 -104 -32 -148 55 -55 151 -16 151 62 0 59
-67 108 -119 86z"/>
<path d="M2405 3273 c-89 -18 -234 -88 -307 -147 -161 -129 -268 -356 -268
-566 0 -210 107 -437 268 -566 122 -98 307 -164 462 -164 210 0 437 107 566
268 61 76 129 219 148 314 33 159 13 313 -59 463 -78 162 -178 262 -340 340
-149 72 -312 92 -470 58z"/>
</g>
</svg>
