<?xml version="1.0" standalone="no"?>
<!DOCTYPE svg PUBLIC "-//W3C//DTD SVG 20010904//EN"
 "http://www.w3.org/TR/2001/REC-SVG-20010904/DTD/svg10.dtd">
<svg version="1.0" xmlns="http://www.w3.org/2000/svg"
 width="920.000000pt" height="920.000000pt" viewBox="0 0 920.000000 920.000000"
 preserveAspectRatio="xMidYMid meet">

<g transform="translate(0.000000,920.000000) scale(0.100000,-0.100000)"
fill="#000000" stroke="none">
<path d="M4291 9190 c-908 -63 -1759 -383 -2481 -933 -659 -502 -1184 -1195
-1487 -1962 -312 -789 -397 -1630 -252 -2484 109 -641 368 -1276 745 -1822
646 -935 1610 -1597 2714 -1864 477 -115 1032 -151 1535 -99 1700 175 3157
1270 3799 2857 161 398 263 807 312 1262 21 195 25 699 6 875 -55 514 -161
936 -342 1365 -428 1016 -1216 1850 -2209 2339 -503 247 -1007 392 -1571 451
-184 19 -595 27 -769 15z m-1292 -2295 c234 -56 391 -252 391 -490 0 -235
-154 -427 -385 -480 -108 -25 -258 -21 -351 10 -143 48 -240 131 -299 258
-115 243 -23 531 206 648 131 66 297 87 438 54z m2899 -1335 c179 -19 362 -80
496 -167 39 -25 114 -89 166 -142 173 -176 261 -366 317 -686 13 -76 16 -227
20 -987 l4 -898 -513 0 -513 0 0 742 c1 781 -3 904 -29 1009 -26 102 -89 221
-144 270 -144 128 -375 154 -558 64 -93 -45 -178 -135 -231 -242 l-38 -77 -3
-883 -2 -883 -503 0 -503 0 1 1435 0 1435 503 0 502 0 0 -216 0 -216 50 76
c173 258 575 408 978 366z m-2588 -1445 l0 -1435 -445 0 -445 0 0 1435 0 1435
445 0 445 0 0 -1435z"/>
</g>
</svg>
