<?xml version="1.0" standalone="no"?>
<!DOCTYPE svg PUBLIC "-//W3C//DTD SVG 20010904//EN"
 "http://www.w3.org/TR/2001/REC-SVG-20010904/DTD/svg10.dtd">
<svg version="1.0" xmlns="http://www.w3.org/2000/svg"
 width="900.000000pt" height="900.000000pt" viewBox="0 0 900.000000 900.000000"
 preserveAspectRatio="xMidYMid meet">

<g transform="translate(0.000000,900.000000) scale(0.100000,-0.100000)"
fill="#000000" stroke="none">
<path d="M4195 8989 c-271 -18 -520 -58 -804 -129 -1073 -269 -2021 -941
-2639 -1872 -413 -620 -654 -1304 -734 -2078 -16 -159 -16 -667 0 -820 64
-599 207 -1101 454 -1594 224 -447 494 -823 848 -1176 704 -705 1613 -1153
2590 -1280 995 -128 1978 66 2840 563 577 332 1110 829 1478 1378 393 585 641
1239 731 1924 104 794 -4 1611 -309 2337 -345 819 -940 1534 -1684 2022 -571
375 -1232 618 -1906 700 -278 34 -592 43 -865 25z m1354 -2809 c180 -23 377
-114 493 -228 l48 -46 77 18 c106 25 300 98 401 152 78 42 83 43 77 22 -16
-51 -88 -183 -129 -236 -54 -70 -158 -170 -209 -201 -21 -13 -36 -25 -35 -27
6 -6 238 44 313 67 38 11 94 32 124 45 30 13 55 23 57 21 2 -1 -30 -45 -70
-97 -74 -96 -248 -272 -323 -325 l-40 -29 -6 -196 c-23 -822 -464 -1614 -1143
-2053 -570 -369 -1300 -482 -2003 -311 -124 30 -357 117 -486 182 -95 47 -223
120 -229 131 -3 4 39 3 92 -1 108 -9 304 3 445 28 206 35 496 157 675 283 l83
59 -63 7 c-302 32 -578 223 -708 490 -62 127 -62 123 12 113 71 -11 197 -5
278 13 l54 12 -74 22 c-102 29 -135 45 -228 104 -98 63 -225 194 -279 287 -77
133 -123 284 -123 405 l0 59 49 -25 c56 -28 207 -69 291 -79 l55 -7 -35 28
c-122 97 -202 194 -266 328 -67 138 -86 224 -86 385 0 155 19 247 77 368 l35
74 137 -142 c195 -202 352 -325 583 -457 289 -166 645 -280 983 -314 65 -6
120 -10 122 -7 2 2 -1 24 -6 48 -15 63 -5 302 15 375 24 89 107 253 161 320
118 146 264 247 435 299 141 44 234 52 369 36z"/>
</g>
</svg>
